{"asset":{"version":"2.0","generator":"VECTARY"},"nodes":[{"translation":[0,1.1102230246251566e-19,-0.0010017105859521677],"scale":[0.001,0.001,0.001],"rotation":[-0.7071067811865475,0,0,0.7071067811865476],"name":"Phone","children":[1,2,3,4,5,6,7,8,9,10,11,12,13,14,15]},{"translation":[0.07999420166015625,-0.5181252956390221,0.02040999941528207],"scale":[10,10,10],"rotation":[0.7071067811865475,0,0,0.7071067811865476],"name":"Screen","mesh":0},{"translation":[0.07999420166015625,-0.5181252956390221,0.02040999941528207],"scale":[10,10,10],"rotation":[0.7071067811865475,0,0,0.7071067811865476],"name":"Lens 1","mesh":1},{"translation":[0.07999420166015625,-0.5181252956390221,0.02040999941528207],"scale":[10,10,10],"rotation":[0.7071067811865475,0,0,0.7071067811865476],"name":"Lens 2","mesh":2},{"translation":[0.07999420166015625,-0.5181252956390221,0.02040999941528207],"scale":[10,10,10],"rotation":[0.7071067811865475,0,0,0.7071067811865476],"name":"Lens 3","mesh":3},{"translation":[0.07999420166015625,-0.5181252956390221,0.02040999941528207],"scale":[10,10,10],"rotation":[0.7071067811865475,0,0,0.7071067811865476],"name":"Flash","mesh":4},{"translation":[0.07999420166015625,-0.5181252956390221,0.02040999941528207],"scale":[10,10,10],"rotation":[0.7071067811865475,0,0,0.7071067811865476],"name":"Display Rim","mesh":5},{"translation":[0.07999420166015625,-0.5181252956390221,0.02040999941528207],"scale":[10,10,10],"rotation":[0.7071067811865475,0,0,0.7071067811865476],"name":"Connector","mesh":6},{"translation":[0.07999420166015625,-0.5181252956390221,0.02040999941528207],"scale":[10,10,10],"rotation":[0.7071067811865475,0,0,0.7071067811865476],"name":"Camera Rims 1","mesh":7},{"translation":[0.07999420166015625,-0.5181252956390221,0.02040999941528207],"scale":[10,10,10],"rotation":[0.7071067811865475,0,0,0.7071067811865476],"name":"Camera Rims 2","mesh":8},{"translation":[0.07999420166015625,-0.5181252956390221,0.02040999941528207],"scale":[10,10,10],"rotation":[0.7071067811865475,0,0,0.7071067811865476],"name":"Sensors","mesh":9},{"translation":[0.1525890827178955,21.254564523696928,70.68303217180072],"scale":[10,10,10],"rotation":[0.7071067811865475,0,0,0.7071067811865476],"name":"Rear Glass","mesh":10},{"translation":[17.180999517440796,21.132854223251385,122.14245933108032],"scale":[10,10,10],"rotation":[0.7071067811865475,0,0,0.7071067811865476],"name":"Camera Glass","mesh":11},{"translation":[0.15999406576156616,-18.934135437011705,1.4794349949807006],"scale":[10,10,10],"rotation":[0.7071067811865475,0,0,0.7071067811865476],"name":"Screws","mesh":12},{"translation":[0.07999420166015625,-0.5181252956390221,0.02040999941528207],"scale":[10,10,10],"rotation":[0.7071067811865475,0,0,0.7071067811865476],"name":"Body","mesh":13},{"translation":[0.07999420166015625,-0.5181252956390221,0.02040999941528207],"scale":[10,10,10],"rotation":[0.7071067811865475,0,0,0.7071067811865476],"name":"Antennas","mesh":14}],"materials":[{"pbrMetallicRoughness":{"baseColorFactor":[1,1,1,1],"baseColorTexture":{"index":0,"extensions":{"KHR_texture_transform":{"offset":[0,0],"scale":[1,1],"rotation":0}},"texCoord":0},"metallicFactor":0,"roughnessFactor":0.2},"name":"Exclusive Elixir","emissiveFactor":[0,0,0],"extensions":{},"alphaMode":"OPAQUE","doubleSided":false},{"pbrMetallicRoughness":{"baseColorFactor":[1,1,1,1],"metallicFactor":0,"roughnessFactor":0},"name":"Lens 1","emissiveFactor":[0,0,0],"extensions":{},"alphaMode":"OPAQUE","doubleSided":false},{"pbrMetallicRoughness":{"baseColorFactor":[1,1,1,1],"metallicFactor":0,"roughnessFactor":0},"name":"Lens 2","emissiveFactor":[0,0,0],"extensions":{},"alphaMode":"OPAQUE","doubleSided":false},{"pbrMetallicRoughness":{"baseColorFactor":[1,1,1,1],"metallicFactor":0,"roughnessFactor":0},"name":"Lens 3","emissiveFactor":[0,0,0],"extensions":{},"alphaMode":"OPAQUE","doubleSided":false},{"pbrMetallicRoughness":{"baseColorFactor":[1,1,1,1],"metallicFactor":0,"roughnessFactor":0},"name":"Flash","emissiveFactor":[0.31,0.31,0.31],"extensions":{},"alphaMode":"OPAQUE","doubleSided":false},{"pbrMetallicRoughness":{"baseColorFactor":[0,0,0,1],"metallicFactor":0,"roughnessFactor":0},"name":"Display Rim","emissiveFactor":[0,0,0],"extensions":{},"alphaMode":"OPAQUE","doubleSided":false},{"pbrMetallicRoughness":{"baseColorFactor":[0,0,0,1],"metallicFactor":1,"roughnessFactor":0.8},"name":"Connector","emissiveFactor":[0,0,0],"extensions":{},"alphaMode":"OPAQUE","doubleSided":false},{"pbrMetallicRoughness":{"baseColorFactor":[0.11926401300504741,0.11657577617857154,0.10871114997903854,1],"metallicFactor":1,"roughnessFactor":0.3},"name":"Camera Rims 1","emissiveFactor":[0,0,0],"extensions":{},"alphaMode":"OPAQUE","doubleSided":false},{"pbrMetallicRoughness":{"baseColorFactor":[0.028991186547107816,0.028991186547107816,0.028991186547107816,1],"metallicFactor":1,"roughnessFactor":0.5},"name":"Camera Rims 2","emissiveFactor":[0,0,0],"extensions":{},"alphaMode":"OPAQUE","doubleSided":false},{"pbrMetallicRoughness":{"baseColorFactor":[0,0,0,1],"metallicFactor":0,"roughnessFactor":0.2},"name":"Sensors","emissiveFactor":[0,0,0],"extensions":{},"alphaMode":"OPAQUE","doubleSided":false},{"pbrMetallicRoughness":{"baseColorFactor":[0.1332085131842997,0.13035227805624436,0.11926401300504741,1],"metallicFactor":0,"roughnessFactor":0.3},"name":"Rear Glass","emissiveFactor":[0,0,0],"extensions":{},"alphaMode":"OPAQUE","doubleSided":false},{"pbrMetallicRoughness":{"baseColorFactor":[0.1332085131842997,0.13035227805624436,0.11926401300504741,1],"metallicFactor":0,"roughnessFactor":0},"name":"Camera Glass","emissiveFactor":[0,0,0],"extensions":{},"alphaMode":"OPAQUE","doubleSided":false},{"pbrMetallicRoughness":{"baseColorFactor":[0.267358060183772,0.267358060183772,0.267358060183772,1],"metallicFactor":1,"roughnessFactor":0.1},"name":"Screws","emissiveFactor":[0,0,0],"extensions":{},"alphaMode":"OPAQUE","doubleSided":false},{"pbrMetallicRoughness":{"baseColorFactor":[0.05818717747368543,0.05637409755197975,0.051122050056493396,1],"metallicFactor":1,"roughnessFactor":0.1},"name":"Body","emissiveFactor":[0,0,0],"extensions":{},"alphaMode":"OPAQUE","doubleSided":false},{"pbrMetallicRoughness":{"baseColorFactor":[0,0,0,1],"metallicFactor":0,"roughnessFactor":0.2},"name":"Antennas","emissiveFactor":[0,0,0],"extensions":{},"alphaMode":"OPAQUE","doubleSided":false}],"textures":[{"sampler":0,"source":0}],"images":[{"uri":"iPhone_14.jpg","mimeType":"image/jpeg"}],"samplers":[{"wrapS":10497,"wrapT":10497}],"meshes":[{"primitives":[{"mode":4,"attributes":{"POSITION":1,"NORMAL":2,"TEXCOORD_0":3},"material":0,"indices":0}]},{"primitives":[{"mode":4,"attributes":{"POSITION":5,"NORMAL":6,"TEXCOORD_0":7},"material":1,"indices":4}]},{"primitives":[{"mode":4,"attributes":{"POSITION":9,"NORMAL":10,"TEXCOORD_0":11},"material":2,"indices":8}]},{"primitives":[{"mode":4,"attributes":{"POSITION":13,"NORMAL":14,"TEXCOORD_0":15},"material":3,"indices":12}]},{"primitives":[{"mode":4,"attributes":{"POSITION":17,"NORMAL":18,"TEXCOORD_0":19},"material":4,"indices":16}]},{"primitives":[{"mode":4,"attributes":{"POSITION":21,"NORMAL":22,"TEXCOORD_0":23,"TEXCOORD_1":24},"material":5,"indices":20}]},{"primitives":[{"mode":4,"attributes":{"POSITION":26,"NORMAL":27,"TEXCOORD_0":28,"TEXCOORD_1":29},"material":6,"indices":25}]},{"primitives":[{"mode":4,"attributes":{"POSITION":31,"NORMAL":32,"TEXCOORD_0":33,"TEXCOORD_1":34},"material":7,"indices":30}]},{"primitives":[{"mode":4,"attributes":{"POSITION":36,"NORMAL":37,"TEXCOORD_0":38,"TEXCOORD_1":39},"material":8,"indices":35}]},{"primitives":[{"mode":4,"attributes":{"POSITION":41,"NORMAL":42,"TEXCOORD_0":43,"TEXCOORD_1":44},"material":9,"indices":40}]},{"primitives":[{"mode":4,"attributes":{"POSITION":46,"NORMAL":47,"TEXCOORD_0":48,"TEXCOORD_1":49},"material":10,"indices":45}]},{"primitives":[{"mode":4,"attributes":{"POSITION":51,"NORMAL":52,"TEXCOORD_0":53,"TEXCOORD_1":54},"material":11,"indices":50}]},{"primitives":[{"mode":4,"attributes":{"POSITION":56,"NORMAL":57,"TEXCOORD_0":58,"TEXCOORD_1":59},"material":12,"indices":55}]},{"primitives":[{"mode":4,"attributes":{"POSITION":61,"NORMAL":62,"TEXCOORD_0":63,"TEXCOORD_1":64},"material":13,"indices":60}]},{"primitives":[{"mode":4,"attributes":{"POSITION":66,"NORMAL":67,"TEXCOORD_0":68,"TEXCOORD_1":69},"material":14,"indices":65}]}],"accessors":[{"bufferView":0,"byteOffset":0,"componentType":5125,"count":10272,"type":"SCALAR"},{"bufferView":1,"byteOffset":0,"componentType":5126,"count":1809,"max":[3.234900951385498,14.03050422668457,2.2373011112213135],"min":[-3.2189009189605713,0.5034000277519226,-1.3872979879379272],"type":"VEC3"},{"bufferView":2,"byteOffset":0,"componentType":5126,"count":1809,"type":"VEC3"},{"bufferView":3,"byteOffset":0,"componentType":5126,"count":1809,"type":"VEC2"},{"bufferView":4,"byteOffset":0,"componentType":5125,"count":7200,"type":"SCALAR"},{"bufferView":5,"byteOffset":0,"componentType":5126,"count":1419,"max":[2.8742339611053467,13.437602996826172,-1.8832319974899292],"min":[1.8643009662628174,12.462137222290039,-2.1561450958251953],"type":"VEC3"},{"bufferView":6,"byteOffset":0,"componentType":5126,"count":1419,"type":"VEC3"},{"bufferView":7,"byteOffset":0,"componentType":5126,"count":1419,"type":"VEC2"},{"bufferView":8,"byteOffset":0,"componentType":5125,"count":7200,"type":"SCALAR"},{"bufferView":9,"byteOffset":0,"componentType":5126,"count":1419,"max":[1.5377000570297241,12.692971229553223,-1.68123197555542],"min":[0.5181999802589417,11.708138465881348,-1.9554259777069092],"type":"VEC3"},{"bufferView":10,"byteOffset":0,"componentType":5126,"count":1419,"type":"VEC3"},{"bufferView":11,"byteOffset":0,"componentType":5126,"count":1419,"type":"VEC2"},{"bufferView":12,"byteOffset":0,"componentType":5125,"count":7200,"type":"SCALAR"},{"bufferView":13,"byteOffset":0,"componentType":5126,"count":1419,"max":[2.8742339611053467,11.938972473144531,-1.481665015220642],"min":[1.8643009662628174,10.963502883911133,-1.7546260356903076],"type":"VEC3"},{"bufferView":14,"byteOffset":0,"componentType":5126,"count":1419,"type":"VEC3"},{"bufferView":15,"byteOffset":0,"componentType":5126,"count":1419,"type":"VEC2"},{"bufferView":16,"byteOffset":0,"componentType":5125,"count":1368,"type":"SCALAR"},{"bufferView":17,"byteOffset":0,"componentType":5126,"count":285,"max":[1.3185210227966309,13.536233901977539,-1.926048994064331],"min":[0.7373790144920349,12.96917724609375,-2.1004700660705566],"type":"VEC3"},{"bufferView":18,"byteOffset":0,"componentType":5126,"count":285,"type":"VEC3"},{"bufferView":19,"byteOffset":0,"componentType":5126,"count":285,"type":"VEC2"},{"bufferView":20,"byteOffset":0,"componentType":5125,"count":19200,"type":"SCALAR"},{"bufferView":21,"byteOffset":0,"componentType":5126,"count":3445,"max":[3.523000955581665,14.280806541442871,2.294234037399292],"min":[-3.507002115249634,0.22659999132156372,-1.5070979595184326],"type":"VEC3"},{"bufferView":22,"byteOffset":0,"componentType":5126,"count":3445,"type":"VEC3"},{"bufferView":23,"byteOffset":0,"componentType":5126,"count":3445,"type":"VEC2"},{"bufferView":24,"byteOffset":0,"componentType":5126,"count":3445,"type":"VEC2"},{"bufferView":25,"byteOffset":0,"componentType":5125,"count":4032,"type":"SCALAR"},{"bufferView":26,"byteOffset":0,"componentType":5126,"count":720,"max":[0.47236698865890503,0.8771000504493713,2.0819010734558105],"min":[-0.45636695623397827,0.13439999520778656,1.6486999988555908],"type":"VEC3"},{"bufferView":27,"byteOffset":0,"componentType":5126,"count":720,"type":"VEC3"},{"bufferView":28,"byteOffset":0,"componentType":5126,"count":720,"type":"VEC2"},{"bufferView":29,"byteOffset":0,"componentType":5126,"count":720,"type":"VEC2"},{"bufferView":30,"byteOffset":0,"componentType":5125,"count":37440,"type":"SCALAR"},{"bufferView":31,"byteOffset":0,"componentType":5126,"count":6480,"max":[2.9968008995056152,13.566094398498535,-1.3131990432739258],"min":[0.4004000127315521,10.846898078918457,-2.18163800239563],"type":"VEC3"},{"bufferView":32,"byteOffset":0,"componentType":5126,"count":6480,"type":"VEC3"},{"bufferView":33,"byteOffset":0,"componentType":5126,"count":6480,"type":"VEC2"},{"bufferView":34,"byteOffset":0,"componentType":5126,"count":6480,"type":"VEC2"},{"bufferView":35,"byteOffset":0,"componentType":5125,"count":23040,"type":"SCALAR"},{"bufferView":36,"byteOffset":0,"componentType":5126,"count":4080,"max":[2.8886680603027344,13.451537132263184,-1.477964997291565],"min":[0.5085330009460449,10.949569702148438,-2.164125919342041],"type":"VEC3"},{"bufferView":37,"byteOffset":0,"componentType":5126,"count":4080,"type":"VEC3"},{"bufferView":38,"byteOffset":0,"componentType":5126,"count":4080,"type":"VEC2"},{"bufferView":39,"byteOffset":0,"componentType":5126,"count":4080,"type":"VEC2"},{"bufferView":40,"byteOffset":0,"componentType":5125,"count":1584,"type":"SCALAR"},{"bufferView":41,"byteOffset":0,"componentType":5126,"count":331,"max":[1.4905550479888916,13.993717193603516,-1.2925770282745361],"min":[-1.539551019668579,10.9057035446167,-1.5653431415557861],"type":"VEC3"},{"bufferView":42,"byteOffset":0,"componentType":5126,"count":331,"type":"VEC3"},{"bufferView":43,"byteOffset":0,"componentType":5126,"count":331,"type":"VEC2"},{"bufferView":44,"byteOffset":0,"componentType":5126,"count":331,"type":"VEC2"},{"bufferView":45,"byteOffset":0,"componentType":5125,"count":25776,"type":"SCALAR"},{"bufferView":46,"byteOffset":0,"componentType":5126,"count":4462,"max":[3.5080347061157227,7.05666971206665,3.7951560020446777],"min":[-3.5080347061157227,-7.056670188903809,-2.384185648907078e-8],"type":"VEC3"},{"bufferView":47,"byteOffset":0,"componentType":5126,"count":4462,"type":"VEC3"},{"bufferView":48,"byteOffset":0,"componentType":5126,"count":4462,"type":"VEC2"},{"bufferView":49,"byteOffset":0,"componentType":5126,"count":4462,"type":"VEC2"},{"bufferView":50,"byteOffset":0,"componentType":5125,"count":14376,"type":"SCALAR"},{"bufferView":51,"byteOffset":0,"componentType":5126,"count":2593,"max":[1.4178005456924438,1.475602626800537,0.8424659967422485],"min":[-1.4178005456924438,-1.4756020307540894,-7.152556946721234e-8],"type":"VEC3"},{"bufferView":52,"byteOffset":0,"componentType":5126,"count":2593,"type":"VEC3"},{"bufferView":53,"byteOffset":0,"componentType":5126,"count":2593,"type":"VEC2"},{"bufferView":54,"byteOffset":0,"componentType":5126,"count":2593,"type":"VEC2"},{"bufferView":55,"byteOffset":0,"componentType":5125,"count":6912,"type":"SCALAR"},{"bufferView":56,"byteOffset":0,"componentType":5126,"count":1236,"max":[0.7211669683456421,0.05209749564528465,0.17395511269569397],"min":[-0.7211669683456421,-0.05209749564528465,-4.7683716530855236e-8],"type":"VEC3"},{"bufferView":57,"byteOffset":0,"componentType":5126,"count":1236,"type":"VEC3"},{"bufferView":58,"byteOffset":0,"componentType":5126,"count":1236,"type":"VEC2"},{"bufferView":59,"byteOffset":0,"componentType":5126,"count":1236,"type":"VEC2"},{"bufferView":60,"byteOffset":0,"componentType":5125,"count":109836,"type":"SCALAR"},{"bufferView":61,"byteOffset":0,"componentType":5126,"count":19541,"max":[3.6242010593414307,14.329916954040527,2.287259101867676],"min":[-3.6082022190093994,0.0020409999415278435,-2.1906089782714844],"type":"VEC3"},{"bufferView":62,"byteOffset":0,"componentType":5126,"count":19541,"type":"VEC3"},{"bufferView":63,"byteOffset":0,"componentType":5126,"count":19541,"type":"VEC2"},{"bufferView":64,"byteOffset":0,"componentType":5126,"count":19541,"type":"VEC2"},{"bufferView":65,"byteOffset":0,"componentType":5125,"count":8700,"type":"SCALAR"},{"bufferView":66,"byteOffset":0,"componentType":5126,"count":1753,"max":[3.5830018520355225,14.329916000366211,2.287259101867676],"min":[-3.5670011043548584,0.0020409999415278435,-2.1906089782714844],"type":"VEC3"},{"bufferView":67,"byteOffset":0,"componentType":5126,"count":1753,"type":"VEC3"},{"bufferView":68,"byteOffset":0,"componentType":5126,"count":1753,"type":"VEC2"},{"bufferView":69,"byteOffset":0,"componentType":5126,"count":1753,"type":"VEC2"}],"bufferViews":[{"buffer":0,"byteOffset":0,"byteLength":41088,"target":34963},{"buffer":0,"byteOffset":41088,"byteLength":21708,"target":34962},{"buffer":0,"byteOffset":62796,"byteLength":21708,"target":34962},{"buffer":0,"byteOffset":84504,"byteLength":14472,"target":34962},{"buffer":0,"byteOffset":98976,"byteLength":28800,"target":34963},{"buffer":0,"byteOffset":127776,"byteLength":17028,"target":34962},{"buffer":0,"byteOffset":144804,"byteLength":17028,"target":34962},{"buffer":0,"byteOffset":161832,"byteLength":11352,"target":34962},{"buffer":0,"byteOffset":173184,"byteLength":28800,"target":34963},{"buffer":0,"byteOffset":201984,"byteLength":17028,"target":34962},{"buffer":0,"byteOffset":219012,"byteLength":17028,"target":34962},{"buffer":0,"byteOffset":236040,"byteLength":11352,"target":34962},{"buffer":0,"byteOffset":247392,"byteLength":28800,"target":34963},{"buffer":0,"byteOffset":276192,"byteLength":17028,"target":34962},{"buffer":0,"byteOffset":293220,"byteLength":17028,"target":34962},{"buffer":0,"byteOffset":310248,"byteLength":11352,"target":34962},{"buffer":0,"byteOffset":321600,"byteLength":5472,"target":34963},{"buffer":0,"byteOffset":327072,"byteLength":3420,"target":34962},{"buffer":0,"byteOffset":330492,"byteLength":3420,"target":34962},{"buffer":0,"byteOffset":333912,"byteLength":2280,"target":34962},{"buffer":0,"byteOffset":336192,"byteLength":76800,"target":34963},{"buffer":0,"byteOffset":412992,"byteLength":41340,"target":34962},{"buffer":0,"byteOffset":454332,"byteLength":41340,"target":34962},{"buffer":0,"byteOffset":495672,"byteLength":27560,"target":34962},{"buffer":0,"byteOffset":523232,"byteLength":27560,"target":34962},{"buffer":0,"byteOffset":550792,"byteLength":16128,"target":34963},{"buffer":0,"byteOffset":566920,"byteLength":8640,"target":34962},{"buffer":0,"byteOffset":575560,"byteLength":8640,"target":34962},{"buffer":0,"byteOffset":584200,"byteLength":5760,"target":34962},{"buffer":0,"byteOffset":589960,"byteLength":5760,"target":34962},{"buffer":0,"byteOffset":595720,"byteLength":149760,"target":34963},{"buffer":0,"byteOffset":745480,"byteLength":77760,"target":34962},{"buffer":0,"byteOffset":823240,"byteLength":77760,"target":34962},{"buffer":0,"byteOffset":901000,"byteLength":51840,"target":34962},{"buffer":0,"byteOffset":952840,"byteLength":51840,"target":34962},{"buffer":0,"byteOffset":1004680,"byteLength":92160,"target":34963},{"buffer":0,"byteOffset":1096840,"byteLength":48960,"target":34962},{"buffer":0,"byteOffset":1145800,"byteLength":48960,"target":34962},{"buffer":0,"byteOffset":1194760,"byteLength":32640,"target":34962},{"buffer":0,"byteOffset":1227400,"byteLength":32640,"target":34962},{"buffer":0,"byteOffset":1260040,"byteLength":6336,"target":34963},{"buffer":0,"byteOffset":1266376,"byteLength":3972,"target":34962},{"buffer":0,"byteOffset":1270348,"byteLength":3972,"target":34962},{"buffer":0,"byteOffset":1274320,"byteLength":2648,"target":34962},{"buffer":0,"byteOffset":1276968,"byteLength":2648,"target":34962},{"buffer":0,"byteOffset":1279616,"byteLength":103104,"target":34963},{"buffer":0,"byteOffset":1382720,"byteLength":53544,"target":34962},{"buffer":0,"byteOffset":1436264,"byteLength":53544,"target":34962},{"buffer":0,"byteOffset":1489808,"byteLength":35696,"target":34962},{"buffer":0,"byteOffset":1525504,"byteLength":35696,"target":34962},{"buffer":0,"byteOffset":1561200,"byteLength":57504,"target":34963},{"buffer":0,"byteOffset":1618704,"byteLength":31116,"target":34962},{"buffer":0,"byteOffset":1649820,"byteLength":31116,"target":34962},{"buffer":0,"byteOffset":1680936,"byteLength":20744,"target":34962},{"buffer":0,"byteOffset":1701680,"byteLength":20744,"target":34962},{"buffer":0,"byteOffset":1722424,"byteLength":27648,"target":34963},{"buffer":0,"byteOffset":1750072,"byteLength":14832,"target":34962},{"buffer":0,"byteOffset":1764904,"byteLength":14832,"target":34962},{"buffer":0,"byteOffset":1779736,"byteLength":9888,"target":34962},{"buffer":0,"byteOffset":1789624,"byteLength":9888,"target":34962},{"buffer":0,"byteOffset":1799512,"byteLength":439344,"target":34963},{"buffer":0,"byteOffset":2238856,"byteLength":234492,"target":34962},{"buffer":0,"byteOffset":2473348,"byteLength":234492,"target":34962},{"buffer":0,"byteOffset":2707840,"byteLength":156328,"target":34962},{"buffer":0,"byteOffset":2864168,"byteLength":156328,"target":34962},{"buffer":0,"byteOffset":3020496,"byteLength":34800,"target":34963},{"buffer":0,"byteOffset":3055296,"byteLength":21036,"target":34962},{"buffer":0,"byteOffset":3076332,"byteLength":21036,"target":34962},{"buffer":0,"byteOffset":3097368,"byteLength":14024,"target":34962},{"buffer":0,"byteOffset":3111392,"byteLength":14024,"target":34962}],"scene":0,"scenes":[{"nodes":[0],"name":"NorthWhistle"}],"extensionsUsed":["KHR_texture_transform"],"buffers":[{"byteLength":3125416,"uri":"NorthWhistle.bin"}]}