<svg xmlns="http://www.w3.org/2000/svg" viewBox="0 0 256 256">
  <path d="M0 20C0 8.95431 8.95431 0 20 0H236C247.046 0 256 8.95431 256 20V236C256 247.046 247.046 256 236 256H20C8.95431 256 0 247.046 0 236V20Z" fill="#5500FF"/>
  <path d="M64 192L48 160L64 128L80 96L96 64H128L144.002 96L160.002 128H128L112 96L96 128L80 160H112L96 192H64Z" fill="white"/>
  <path d="M160.002 128L176 96H144.002L160.002 64H192.002L208 96L192.002 128L176 160L160.002 192H128L112 160L96.0001 128H128L144.002 160L160.002 128Z" fill="white"/>
</svg>
