{"asset":{"version":"2.0","generator":"VECTARY"},"nodes":[{"translation":[0.18,0.1399,2.842170943040401e-17],"scale":[0.001,0.001,0.001],"rotation":[-0.7071067811865475,0,0,0.7071067811865476],"name":"nblocksLogo","mesh":0}],"materials":[{"pbrMetallicRoughness":{"baseColorFactor":[1,1,1,1],"baseColorTexture":{"index":0,"extensions":{"KHR_texture_transform":{"offset":[0,0],"scale":[1,1],"rotation":0}},"texCoord":0},"metallicFactor":0,"roughnessFactor":0},"name":"Jackpot","emissiveFactor":[0,0.08235294117647059,1],"extensions":{"KHR_materials_transmission":{"transmissionFactor":0.16},"KHR_materials_ior":{"ior":1.333},"KHR_materials_volume":{"thicknessFactor":0.01,"attenuationDistance":0.01,"attenuationColor":[1,1,1]}},"alphaMode":"OPAQUE","doubleSided":false}],"textures":[{"sampler":0,"source":0}],"images":[{"uri":"Linear_Gradient_Texture.jpg","mimeType":"image/jpeg"}],"samplers":[{"wrapS":10497,"wrapT":10497}],"meshes":[{"primitives":[{"mode":4,"attributes":{"POSITION":1,"NORMAL":2,"TEXCOORD_0":3},"material":0,"indices":0}]}],"accessors":[{"bufferView":0,"byteOffset":0,"componentType":5125,"count":20004,"type":"SCALAR"},{"bufferView":1,"byteOffset":0,"componentType":5126,"count":7441,"max":[148.62655639648438,9.97467041015625,39.897193908691406],"min":[-148.62655639648438,-9.97467041015625,-39.900001525878906],"type":"VEC3"},{"bufferView":2,"byteOffset":0,"componentType":5126,"count":7441,"type":"VEC3"},{"bufferView":3,"byteOffset":0,"componentType":5126,"count":7441,"type":"VEC2"}],"bufferViews":[{"buffer":0,"byteOffset":0,"byteLength":80016,"target":34963},{"buffer":0,"byteOffset":80016,"byteLength":89292,"target":34962},{"buffer":0,"byteOffset":169308,"byteLength":89292,"target":34962},{"buffer":0,"byteOffset":258600,"byteLength":59528,"target":34962}],"scene":0,"scenes":[{"nodes":[0],"name":"nblocks"}],"extensionsUsed":["KHR_texture_transform","KHR_materials_ior","KHR_materials_volume","KHR_materials_transmission"],"buffers":[{"byteLength":318128,"uri":"nblocks.bin"}]}